<?xml version="1.0" encoding="utf-8"?>
<!-- Generator: Adobe Illustrator 24.0.2, SVG Export Plug-In . SVG Version: 6.00 Build 0)  -->
<svg version="1.1" id="Layer_1" xmlns="http://www.w3.org/2000/svg" xmlns:xlink="http://www.w3.org/1999/xlink" x="0px" y="0px"
	 viewBox="0 0 332.75 330.36" style="enable-background:new 0 0 332.75 330.36;" xml:space="preserve">
<style type="text/css">
	.st0{fill:#DB0C2E;stroke:#000000;stroke-miterlimit:10;}
	.st1{fill:none;stroke:#DB0B2D;stroke-width:7;stroke-miterlimit:10;}
	.st2{fill:#1D71B8;stroke:#DB0B2D;stroke-width:7;stroke-miterlimit:10;}
	.st3{fill:url(#SVGID_1_);stroke:#FFFFFF;stroke-width:4;stroke-miterlimit:10;}
	.st4{fill:none;stroke:#000000;stroke-miterlimit:10;}
	.st5{fill:none;stroke:#FFFFFF;stroke-width:5;stroke-miterlimit:10;}
	.st6{fill:#FFFFFF;stroke:#FFFFFF;stroke-miterlimit:10;}
	.st7{fill:none;}
	.st8{fill:none;stroke:#DB0B2D;stroke-miterlimit:10;}
</style>
<path class="st0" d="M372.14,75.26"/>
<path class="st1" d="M562.01,72.87"/>
<path class="st1" d="M416.63,218.25"/>
<path class="st1" d="M614.65,195.33"/>
<g>
	<circle class="st2" cx="168.87" cy="166.09" r="145.38"/>
	<linearGradient id="SVGID_1_" gradientUnits="userSpaceOnUse" x1="97.2893" y1="169.8822" x2="237.3031" y2="169.8822">
		<stop  offset="0" style="stop-color:#DB0B2D"/>
		<stop  offset="0.1283" style="stop-color:#D70C2C"/>
		<stop  offset="0.2954" style="stop-color:#CD0D2A"/>
		<stop  offset="0.4839" style="stop-color:#BB0F25"/>
		<stop  offset="0.6882" style="stop-color:#A1101E"/>
		<stop  offset="0.9029" style="stop-color:#800F14"/>
		<stop  offset="1" style="stop-color:#6F0D0E"/>
	</linearGradient>
	<path class="st3" d="M234.47,113.58c5.98,18.11,0.95,36.07-1,43.01c-5.71,20.38-16.85,31.59-26.99,44.64
		c-11.99,15.44-26.86,38.97-38.12,73.63c-24.16-43.96-37.2-62.89-44.74-71.76c-2.17-2.55-8.9-12.86-18.03-26.57
		c0,0-3.46-6.64-5.59-12.14c-7.25-18.73-2.66-82.57,46.64-96.9C185.38,56.24,224.55,83.54,234.47,113.58z"/>
	<path class="st0" d="M210.02,274.86"/>
	<path class="st0" d="M202.49,265.18"/>
	<path class="st4" d="M235.76,231.78"/>
	<path class="st4" d="M230.98,215.87"/>
	<path class="st5" d="M98.7,122.93c1.41,0.71,49.04,13.3,68.66,13.77c30.23,0.72,57.24-6.96,69.94-12.59"/>
	<path class="st5" d="M100.47,166.38c12.2,6.31,32.88,16.04,62.93,16.77c29.61,0.72,54.74-11.15,67.19-16.77"/>
	<path d="M101.82,168.31"/>
	<path d="M103.7,124.12"/>
	<path class="st6" d="M208.89,177.54c-7.8,3.39-21.82,8.34-40.07,8.74c-20.85,0.46-36.8-5.25-44.86-8.74
		c-0.98-0.02-5.2-0.21-8.5-3.23c-2.35-2.15-3.06-4.65-3.21-5.25c-0.21-0.81-0.32-1.65-0.32-2.51v-25.1
		c0.58-3.64,1.15-7.28,1.73-10.92c3.43-0.02,6.87-0.04,10.3-0.06c8.94,3.18,23.85,7.32,42.73,7.28c18.61-0.04,33.31-4.12,42.2-7.28
		c2.83,1.08,5.66,2.15,8.5,3.23c0.74-0.76,1.47-1.52,2.21-2.28c0.44,12.8,0.88,25.61,1.32,38.41
		C218.8,174.85,213.34,174.17,208.89,177.54z"/>
	<path d="M191.21,225.95"/>
	<path class="st7" d="M148.94,51.48"/>
	<path id="SVGID_x5F_2_x5F_" class="st7" d="M60.01,104.35c51.69-61.44,143.4-69.34,204.84-17.65"/>
	<text>	<textPath  xlink:href="#SVGID_x5F_2_x5F_" startOffset="22.07%">
<tspan  style="fill:#FAFAFA; font-family:'CopperplateGothic-Bold'; font-size:21px;">Corona Zona</tspan>	</textPath>
</text>
	<path id="XMLID_1_" class="st7" d="M283.26,252.93c-49.92,62.89-141.37,73.4-204.25,23.49"/>
	<path id="SVGID_x5F_3_x5F_" class="st7" d="M66.56,263.83c58.47,55.03,150.48,52.23,205.5-6.24"/>
	<text>	<textPath  xlink:href="#SVGID_x5F_3_x5F_" startOffset="0.854%">
<tspan  style="font-family:'MyriadPro-Regular'; font-size:12px;">                             </tspan><tspan  style="fill:#FFFFFF; font-family:'MyriadPro-Bold'; font-size:12px;">  </tspan><tspan  style="fill:#FFFFFF; font-family:'MyriadPro-Bold'; font-size:18px;">  PERÚ</tspan>	</textPath>
</text>
	<path class="st1" d="M322.96,201.55"/>
</g>
<path class="st8" d="M708.64,221.97"/>
<path class="st8" d="M416.89,225.72"/>
<path class="st8" d="M493.11-2.82"/>
<path class="st8" d="M422.4,67.9"/>
<path class="st8" d="M763.59,244.59"/>
<path class="st8" d="M692.88,315.31"/>
</svg>
