<svg id="Layer_1" data-name="Layer 1" xmlns="http://www.w3.org/2000/svg" viewBox="0 0 487.85 282.8"><defs><style>.cls-1{fill:#010101;}.cls-2{fill:#e41f1f;}.cls-3{fill:#aa7313;}.cls-4{fill:#243f24;}.cls-5{font-size:24px;fill:#dd1f42;font-family:MyriadPro-Bold, Myriad Pro;font-weight:700;}.cls-6{letter-spacing:-0.01em;}.cls-7{letter-spacing:0em;}.cls-8{letter-spacing:0.01em;}.cls-9{font-size:14px;fill:#030202;}.cls-10{letter-spacing:0em;}.cls-11{letter-spacing:-0.01em;}.cls-12{letter-spacing:-0.01em;}.cls-13{letter-spacing:-0.01em;}.cls-14{letter-spacing:0em;}.cls-15{letter-spacing:-0.01em;}.cls-16{letter-spacing:-0.01em;}.cls-17{letter-spacing:-0.01em;}.cls-18{letter-spacing:0em;}.cls-19{letter-spacing:-0.03em;}.cls-20{letter-spacing:-0.04em;}.cls-21{letter-spacing:-0.08em;}.cls-22{letter-spacing:-0.01em;}.cls-23{letter-spacing:0em;}.cls-24{letter-spacing:-0.01em;}.cls-25{letter-spacing:-0.01em;}</style></defs><title>Semaforo Riesgo</title><path class="cls-1" d="M195.09,35.24H175.62a10.08,10.08,0,0,0,.89-4.14h0A10.25,10.25,0,0,0,166.3,20.88H125.44A10.25,10.25,0,0,0,115.22,31.1h0a10.08,10.08,0,0,0,.89,4.14H97.59a12,12,0,0,0-12,12v233a12,12,0,0,0,12,12h17.18a10.19,10.19,0,0,0,10.13,11.46h40.86a10.11,10.11,0,0,0,10.13-11.46h19.2a12,12,0,0,0,12-12v-233A12,12,0,0,0,195.09,35.24Z" transform="translate(-34.44 -20.88)"/><path class="cls-1" d="M222.37,87.83a43,43,0,0,1,25.81-10.75l9.68-12.9H208.39V119C208.44,116.19,209,99.89,222.37,87.83Z" transform="translate(-34.44 -20.88)"/><path class="cls-1" d="M208.46,191.46c0-2.82.6-19.12,14-31.18a43,43,0,0,1,25.81-10.75l9.68-12.9H208.46Z" transform="translate(-34.44 -20.88)"/><path class="cls-1" d="M207.38,265.06c.05-2.82.6-19.13,14-31.19a43,43,0,0,1,25.8-10.75l9.68-12.9H207.38Z" transform="translate(-34.44 -20.88)"/><path class="cls-1" d="M45.2,80.79A43,43,0,0,1,71,91.55c13.38,12,13.93,28.36,14,31.18V67.89H35.52Z" transform="translate(-34.44 -20.88)"/><path class="cls-1" d="M69.93,160c13.37,12.06,13.93,28.36,14,31.18V136.31H34.44l9.68,12.91A43,43,0,0,1,69.93,160Z" transform="translate(-34.44 -20.88)"/><path class="cls-1" d="M45.2,223.51A43.07,43.07,0,0,1,71,234.26c13.38,12.06,13.93,28.37,14,31.19V210.61H35.52Z" transform="translate(-34.44 -20.88)"/><circle class="cls-2" cx="111.9" cy="71.42" r="44.13"/><circle class="cls-3" cx="111.9" cy="150.04" r="25.54"/><circle class="cls-4" cx="111.9" cy="217.14" r="25.54"/><text class="cls-5" transform="translate(235.16 86.94)">¡<tspan class="cls-6" x="6.43" y="0">A</tspan><tspan x="22.03" y="0">l</tspan><tspan class="cls-7" x="28.63" y="0">t</tspan><tspan x="37.32" y="0">o </tspan><tspan class="cls-8" x="56.01" y="0">R</tspan><tspan x="70.49" y="0">iesgo!</tspan><tspan class="cls-9"><tspan x="0" y="33.6">En es</tspan><tspan class="cls-10" x="31.98" y="33.6">t</tspan><tspan x="37.04" y="33.6">e distri</tspan><tspan class="cls-10" x="79.81" y="33.6">t</tspan><tspan x="84.88" y="33.6">o el ni</tspan><tspan class="cls-11" x="121.9" y="33.6">v</tspan><tspan x="129.11" y="33.6">el de </tspan><tspan class="cls-12" x="161.74" y="33.6">c</tspan><tspan x="167.9" y="33.6">o</tspan><tspan class="cls-13" x="175.98" y="33.6">n</tspan><tspan x="184.1" y="33.6">tagios </tspan><tspan class="cls-14" x="225.63" y="33.6">p</tspan><tspan x="234.05" y="33.6">or </tspan><tspan class="cls-15" x="0" y="50.4">c</tspan><tspan x="6.16" y="50.4">o</tspan><tspan class="cls-16" x="14.24" y="50.4">r</tspan><tspan x="19.45" y="50.4">on</tspan><tspan class="cls-17" x="35.73" y="50.4">a</tspan><tspan x="42.95" y="50.4">vi</tspan><tspan class="cls-18" x="54.21" y="50.4">r</tspan><tspan x="59.49" y="50.4">us es al</tspan><tspan class="cls-10" x="104.09" y="50.4">t</tspan><tspan class="cls-19" x="109.16" y="50.4">o</tspan><tspan x="116.76" y="50.4">.</tspan><tspan class="cls-20" x="120.4" y="50.4"> </tspan><tspan class="cls-21" x="122.68" y="50.4">T</tspan><tspan x="129.22" y="50.4">e a</tspan><tspan class="cls-22" x="146.83" y="50.4">c</tspan><tspan x="152.99" y="50.4">onsejamos que </tspan><tspan class="cls-13" x="0" y="67.2">e</tspan><tspan x="7.31" y="67.2">vi</tspan><tspan class="cls-10" x="18.56" y="67.2">t</tspan><tspan x="23.63" y="67.2">es los me</tspan><tspan class="cls-16" x="80.19" y="67.2">r</tspan><tspan class="cls-23" x="85.4" y="67.2">c</tspan><tspan x="91.77" y="67.2">ados y las </tspan><tspan class="cls-24" x="154.78" y="67.2">z</tspan><tspan x="161.25" y="67.2">onas de ag</tspan><tspan class="cls-18" x="227.97" y="67.2">r</tspan><tspan x="233.25" y="67.2">u</tspan><tspan x="241.42" y="67.2">-</tspan><tspan x="0" y="84">pación de </tspan><tspan class="cls-14" x="63.59" y="84">p</tspan><tspan x="72" y="84">ersona</tspan><tspan class="cls-25" x="114.46" y="84">s</tspan><tspan x="120.4" y="84">.</tspan></tspan></text></svg>