<svg xmlns="http://www.w3.org/2000/svg" xmlns:xlink="http://www.w3.org/1999/xlink" viewBox="0 0 297.76 297.76"><defs><style>.cls-1{fill:#1d71b8;stroke:#db0b2d;stroke-width:7px;}.cls-1,.cls-2,.cls-3,.cls-4{stroke-miterlimit:10;}.cls-2,.cls-3,.cls-4{stroke:#fff;}.cls-2{stroke-width:4px;fill:url(#linear-gradient);}.cls-3,.cls-6{fill:none;}.cls-3{stroke-width:5px;}.cls-4,.cls-8,.cls-9{fill:#fff;}.cls-5{font-size:21px;fill:#fafafa;font-family:CopperplateGothic-Bold, Copperplate Gothic Bold;}.cls-5,.cls-8,.cls-9{font-weight:700;}.cls-7,.cls-8{font-size:12px;}.cls-7{fill:#1d1d1b;font-family:MyriadPro-Regular, Myriad Pro;}.cls-8,.cls-9{font-family:MyriadPro-Bold, Myriad Pro;}.cls-9{font-size:18px;}</style><linearGradient id="linear-gradient" x1="77.3" y1="152.68" x2="217.31" y2="152.68" gradientUnits="userSpaceOnUse"><stop offset="0" stop-color="#db0b2d"/><stop offset="0.16" stop-color="#d50b2b"/><stop offset="0.37" stop-color="#c50b27"/><stop offset="0.61" stop-color="#aa0c1f"/><stop offset="0.87" stop-color="#850d14"/><stop offset="1" stop-color="#6f0d0e"/></linearGradient></defs><title>Asset 1</title><g id="Layer_2" data-name="Layer 2"><g id="Layer_1-2" data-name="Layer 1"><circle class="cls-1" cx="148.88" cy="148.88" r="145.38"/><path class="cls-2" d="M214.48,96.38c6,18.11.94,36.07-1,43-5.71,20.38-16.85,31.59-27,44.64-12,15.44-26.86,39-38.12,73.63-24.16-44-37.2-62.9-44.74-71.77-2.16-2.55-8.9-12.85-18-26.57,0,0-3.46-6.64-5.59-12.13-7.25-18.73-2.66-82.58,46.65-96.9C165.39,39,204.56,66.33,214.48,96.38Z"/><path class="cls-3" d="M78.71,105.73c1.41.71,49,13.3,68.66,13.77,30.23.72,57.24-7,69.94-12.59"/><path class="cls-3" d="M80.48,149.18c12.2,6.31,32.88,16,62.93,16.77,29.61.72,54.74-11.15,67.18-16.77"/><path class="cls-4" d="M188.9,160.34a107.23,107.23,0,0,1-84.93,0,13.35,13.35,0,0,1-8.49-3.23,11.11,11.11,0,0,1-3.22-5.24,10.46,10.46,0,0,1-.31-2.51v-25.1q.85-5.46,1.73-10.92l10.29-.06a127.51,127.51,0,0,0,42.74,7.28,127,127,0,0,0,42.19-7.28l8.5,3.22,2.21-2.28,1.32,38.42C198.81,157.65,193.35,157,188.9,160.34Z"/><text class="cls-5" transform="translate(79.02 54.22) rotate(-26.23)">C</text><text class="cls-5" transform="translate(94.52 46.65) rotate(-19.94)">o</text><text class="cls-5" transform="translate(108.27 41.66) rotate(-14.29)">r</text><text class="cls-5" transform="translate(121.65 38.2) rotate(-8.77)">o</text><text class="cls-5" transform="translate(136.1 35.94) rotate(-2.92)">n</text><text class="cls-5" transform="matrix(1, 0.05, -0.05, 1, 151.34, 35.17)">a</text><text class="cls-5" transform="matrix(0.99, 0.12, -0.12, 0.99, 165.65, 36.03)"> </text><text class="cls-5" transform="translate(170.64 36.44) rotate(10.54)">Z</text><text class="cls-5" transform="translate(185.04 39.1) rotate(16.33)">o</text><text class="cls-5" transform="translate(199.08 43.18) rotate(22.25)">n</text><text class="cls-5" transform="matrix(0.88, 0.47, -0.47, 0.88, 213.19, 48.96)">a</text><path class="cls-6" d="M263.27,235.72A145.38,145.38,0,0,1,59,259.21"/><text class="cls-7" transform="translate(48.09 248.04) rotate(41.97)"> </text><text class="cls-7" transform="matrix(0.76, 0.66, -0.66, 0.76, 50.09, 249.83)"> </text><text class="cls-7" transform="matrix(0.77, 0.64, -0.64, 0.77, 52.11, 251.59)"> </text><text class="cls-7" transform="matrix(0.78, 0.63, -0.63, 0.78, 54.18, 253.31)"> </text><text class="cls-7" transform="translate(56.27 254.99) rotate(37.78)"> </text><text class="cls-7" transform="translate(58.38 256.63) rotate(36.73)"> </text><text class="cls-7" transform="matrix(0.81, 0.58, -0.58, 0.81, 60.52, 258.23)"> </text><text class="cls-7" transform="translate(62.7 259.79) rotate(34.62)"> </text><text class="cls-7" transform="matrix(0.83, 0.55, -0.55, 0.83, 64.93, 261.33)"> </text><text class="cls-7" transform="matrix(0.84, 0.54, -0.54, 0.84, 67.16, 262.8)"> </text><text class="cls-7" transform="translate(69.43 264.25) rotate(31.43)"> </text><text class="cls-7" transform="matrix(0.86, 0.51, -0.51, 0.86, 71.72, 265.65)"> </text><text class="cls-7" transform="matrix(0.87, 0.49, -0.49, 0.87, 74.03, 267)"> </text><text class="cls-7" transform="translate(76.38 268.32) rotate(28.23)"> </text><text class="cls-7" transform="matrix(0.89, 0.46, -0.46, 0.89, 78.75, 269.59)"> </text><text class="cls-7" transform="matrix(0.9, 0.44, -0.44, 0.9, 81.14, 270.81)"> </text><text class="cls-7" transform="translate(83.55 271.99) rotate(25.03)"> </text><text class="cls-7" transform="translate(85.97 273.12) rotate(23.97)"> </text><text class="cls-7" transform="matrix(0.92, 0.39, -0.39, 0.92, 88.44, 274.21)"> </text><text class="cls-7" transform="translate(90.92 275.26) rotate(21.83)"> </text><text class="cls-7" transform="translate(93.39 276.25) rotate(20.77)"> </text><text class="cls-7" transform="translate(95.92 277.21) rotate(19.7)"> </text><text class="cls-7" transform="translate(98.44 278.11) rotate(18.64)"> </text><text class="cls-7" transform="translate(100.98 278.96) rotate(17.58)"> </text><text class="cls-7" transform="translate(103.55 279.78) rotate(16.51)"> </text><text class="cls-7" transform="translate(106.11 280.53) rotate(15.46)"> </text><text class="cls-7" transform="matrix(0.97, 0.25, -0.25, 0.97, 108.71, 281.25)"> </text><text class="cls-7" transform="translate(111.29 281.91) rotate(13.34)"> </text><text class="cls-7" transform="matrix(0.98, 0.21, -0.21, 0.98, 113.9, 282.53)"> </text><text class="cls-8" transform="translate(116.53 283.1) rotate(11.24)"> </text><text class="cls-8" transform="matrix(0.98, 0.18, -0.18, 0.98, 119.05, 283.6)"> </text><text class="cls-9" transform="translate(121.58 284.06) rotate(8.98)"> </text><text class="cls-9" transform="translate(125.36 284.66) rotate(7.48)"> </text><text class="cls-9" transform="translate(129.36 285.26) rotate(4.55)">P</text><text class="cls-9" transform="matrix(1, 0.01, -0.01, 1, 140.34, 286.1)">E</text><text class="cls-9" transform="translate(150.52 286.17) rotate(-3.79)">R</text><text class="cls-9" transform="matrix(0.99, -0.15, 0.15, 0.99, 161.7, 285.44)">Ú</text></g></g></svg>